<?xml version="1.0" encoding="UTF-8" standalone="no" ?>
<!DOCTYPE svg PUBLIC "-//W3C//DTD SVG 1.1//EN" "http://www.w3.org/Graphics/SVG/1.1/DTD/svg11.dtd">
<svg xmlns="http://www.w3.org/2000/svg" viewBox="0 0 1236.3 536.6" style="enable-background:new 0 0 1236.3 536.6" xml:space="preserve">
<style>
    .st5 {
        fill: #fff
    }
</style>
<path class="st5" d="M390.3 394.5c0-15.7 11.4-26.5 25.9-26.5 8.1 0 14.3 3.6 18.7 9.1l-3.7 2.4c-3.2-4.5-8.8-7.4-15-7.4-12.1 0-21.3 9.1-21.3 22.5 0 13.2 9.3 22.5 21.3 22.5 6.1 0 11.7-3 15-7.4l3.7 2.3c-4.5 5.6-10.5 9.1-18.7 9.1-14.5-.1-25.9-10.9-25.9-26.6zm76.9 25.5v-4.4c-3.3 3.6-7.4 5.3-12.6 5.3-6.4 0-13-4.4-13-12.4 0-8.1 6.5-12.3 13-12.3 5.1 0 9.4 1.7 12.6 5.3V394c0-5.5-4.5-8.5-10-8.5-4.6 0-8.2 1.6-11.6 5.5l-2.2-2.8c3.8-4.1 8.1-6.2 14.3-6.2 7.5 0 13.5 3.6 13.5 11.9V420h-4zm0-7.3v-8.1c-2.6-3.4-6.8-5.1-11.2-5.1-6.1 0-10.1 3.9-10.1 9.2 0 5.2 4 9.1 10.1 9.1 4.4 0 8.6-1.7 11.2-5.1zm20.4 1.3v20.1h-4V383h4v5.8c2.6-3.8 7.4-6.8 12.9-6.8 9.9 0 16.6 7.5 16.6 19.4 0 11.8-6.7 19.5-16.6 19.5-5.2.1-9.9-2.6-12.9-6.9zm25.2-12.5c0-9-4.7-15.8-13-15.8-5.1 0-10.1 3.1-12.2 6.6v18.3c2.1 3.5 7.1 6.8 12.2 6.8 8.3-.1 13-7 13-15.9zm15.1 11.4v-26.4h-6.1V383h6.1v-10.1h4.1V383h7.5v3.5H532v25.8c0 3 1.2 5.1 3.8 5.1 1.8 0 3.3-.8 4.1-1.8l1.5 3.1c-1.5 1.4-3.2 2.3-6.3 2.3-4.8 0-7.2-3-7.2-8.1zm45.4 7.1v-5.4c-3.1 3.4-8 6.4-13.4 6.4-7.6 0-11.7-3.5-11.7-11.9V383h4v25.2c0 7.2 3.6 9.2 9 9.2 4.8 0 9.6-2.8 12.1-6.1V383h4v37h-4zm16.4 0v-37h4v6.4c3.1-4.1 7.4-7.1 12.5-7.1v4.4c-.7-.2-1.2-.2-2-.2-3.8 0-8.8 3.4-10.5 6.6v27h-4zm22.2-18.5c0-10.7 7.6-19.4 17.9-19.4 11.3 0 17.5 9 17.5 19.7v1.1h-31c.4 8.1 5.8 14.7 14.5 14.7 4.7 0 9-1.8 12.1-5.1l2.1 2.6c-3.7 3.8-8.4 6-14.5 6-10.9-.1-18.6-8.2-18.6-19.6zm17.8-16c-8.8 0-13.1 7.7-13.4 14.1h26.9c-.1-6.3-4.2-14.1-13.5-14.1zm45.9 9c0-15 9.8-26.5 24.9-26.5 15 0 24.9 11.5 24.9 26.5s-9.9 26.5-24.9 26.5c-15 0-24.9-11.6-24.9-26.5zm45.2 0c0-13-8-22.5-20.3-22.5-12.4 0-20.3 9.4-20.3 22.5 0 12.9 7.8 22.5 20.3 22.5 12.3 0 20.3-9.6 20.3-22.5zM740 414v20.1h-4V383h4v5.8c2.6-3.8 7.4-6.8 12.9-6.8 9.9 0 16.6 7.5 16.6 19.4 0 11.8-6.7 19.5-16.6 19.5-5.2.1-9.9-2.6-12.9-6.9zm25.2-12.5c0-9-4.7-15.8-13-15.8-5.1 0-10.1 3.1-12.2 6.6v18.3c2.1 3.5 7.1 6.8 12.2 6.8 8.3-.1 13-7 13-15.9zm18.4 12.5v20.1h-4V383h4v5.8c2.6-3.8 7.4-6.8 12.9-6.8 9.9 0 16.6 7.5 16.6 19.4 0 11.8-6.7 19.5-16.6 19.5-5.3.1-9.9-2.6-12.9-6.9zm25.1-12.5c0-9-4.7-15.8-13-15.8-5.1 0-10.1 3.1-12.2 6.6v18.3c2.1 3.5 7.1 6.8 12.2 6.8 8.4-.1 13-7 13-15.9zm12.3 0c0-10.8 7-19.4 17.8-19.4 11 0 17.9 8.6 17.9 19.4s-6.9 19.5-17.9 19.5c-10.9 0-17.8-8.7-17.8-19.5zm31.3 0c0-8.2-4.8-15.8-13.6-15.8-8.6 0-13.5 7.6-13.5 15.8 0 8.3 4.9 15.9 13.5 15.9 8.8-.1 13.6-7.7 13.6-15.9zm14.6 18.5v-37h4v6.4c3.1-4.1 7.4-7.1 12.5-7.1v4.4c-.7-.2-1.2-.2-2-.2-3.8 0-8.8 3.4-10.5 6.6v27h-4zm25.1-7.1v-26.4h-6.1V383h6.1v-10.1h4.1V383h7.5v3.5h-7.5v25.8c0 3 1.2 5.1 3.8 5.1 1.8 0 3.3-.8 4.1-1.8l1.5 3.1c-1.5 1.4-3.2 2.3-6.3 2.3-4.8 0-7.2-3-7.2-8.1zm45.4 7.1v-5.4c-3.1 3.4-8 6.4-13.4 6.4-7.6 0-11.7-3.5-11.7-11.9V383h4v25.2c0 7.2 3.6 9.2 9 9.2 4.8 0 9.6-2.8 12.1-6.1V383h4v37h-4zm41.4 0v-25.1c0-7.1-3.6-9.3-9-9.3-4.8 0-9.7 3-12.1 6.4v28h-4v-37h4v5.6c2.7-3.2 8-6.5 13.4-6.5 7.5 0 11.7 3.7 11.7 12.1V420h-4zm15.4-45.9c0-1.7 1.5-3 3.1-3 1.7 0 3.1 1.3 3.1 3s-1.4 3.1-3.1 3.1c-1.6-.1-3.1-1.5-3.1-3.1zm1.1 45.9v-37h4v37h-4zm17.2-7.1v-26.4h-6.1V383h6.1v-10.1h4.1V383h7.5v3.5h-7.5v25.8c0 3 1.2 5.1 3.8 5.1 1.8 0 3.3-.8 4.1-1.8l1.5 3.1c-1.5 1.4-3.2 2.3-6.3 2.3-4.9 0-7.2-3-7.2-8.1zm19.2-38.8c0-1.7 1.5-3 3.1-3 1.7 0 3.1 1.3 3.1 3s-1.4 3.1-3.1 3.1c-1.6-.1-3.1-1.5-3.1-3.1zm1.1 45.9v-37h4v37h-4zm14.3-18.5c0-10.7 7.6-19.4 17.9-19.4 11.3 0 17.5 9 17.5 19.7v1.1h-31c.4 8.1 5.8 14.7 14.5 14.7 4.7 0 9-1.8 12.1-5.1l2.1 2.6c-3.7 3.8-8.4 6-14.5 6-10.9-.1-18.6-8.2-18.6-19.6zm17.8-16c-8.8 0-13.1 7.7-13.4 14.1h26.9c-.1-6.3-4.2-14.1-13.5-14.1zm24.6 29.6 2.4-3c2.4 3 6.8 5.5 12 5.5 6.2 0 9.9-3.2 9.9-7.5 0-10.1-23.4-4.5-23.4-17.7 0-5.7 4.8-10.3 13.2-10.3 6.4 0 10.6 2.5 13.3 5.4l-2.2 2.8c-2.1-2.9-6.1-4.9-11.1-4.9-5.8 0-9.3 2.9-9.3 6.8 0 9.3 23.4 3.6 23.4 17.9 0 6-4.6 10.9-13.9 10.9-6 0-10.6-1.8-14.3-5.9z" id="Layer_6" />
<g id="Layer_7" />
<path class="st5" d="M1117.7 159.9c0-5.4-2.7-8.2-8.2-8.2h-65.4c-5.4 0-8.2 2.7-8.2 8.2V307c0 5.4 2.7 8.2 8.2 8.2h65.4c5.4 0 8.2-2.7 8.2-8.2 0-5.4-2.7-8.2-8.2-8.2h-57.2v-65.4h40.9c5.4 0 8.2-2.7 8.2-8.2 0-5.4-2.7-8.2-8.2-8.2h-40.9v-49h57.2c5.5.1 8.2-2.6 8.2-8.1zM988.8 307.1V159.9c0-5.4-2.7-8.2-8.2-8.2-5.4 0-8.2 2.7-8.2 8.2v115.6l-66-118.9c-1.8-3.2-4.3-4.8-7.6-4.8-5.4 0-8.2 2.7-8.2 8.2v147.1c0 5.4 2.7 8.2 8.2 8.2 5.4 0 8.2-2.7 8.2-8.2V191.4l66.4 119.8c1.5 2.7 3.9 4.1 7.2 4.1 5.4-.1 8.2-2.8 8.2-8.2zm-156.3 0V159.9c0-5.4-2.7-8.2-8.2-8.2-5.4 0-8.2 2.7-8.2 8.2V307c0 5.4 2.7 8.2 8.2 8.2 5.5 0 8.2-2.7 8.2-8.1zm-62.6 0c0-5.4-2.7-8.2-8.2-8.2h-57.2v-139c0-5.4-2.7-8.2-8.2-8.2s-8.2 2.7-8.2 8.2V307c0 5.4 2.7 8.2 8.2 8.2h65.4c5.5 0 8.2-2.7 8.2-8.1zm-127-142.5c1-1.4 1.5-3 1.5-4.7 0-5.4-2.7-8.2-8.2-8.2-3 0-5.2 1.2-6.8 3.5l-42.2 61.4-42.2-61.4c-1.6-2.3-3.8-3.5-6.8-3.5-5.4 0-8.2 2.7-8.2 8.2 0 1.7.5 3.3 1.5 4.7l47.6 68.9v73.6c0 5.4 2.7 8.2 8.2 8.2 5.4 0 8.2-2.7 8.2-8.2v-73.6l47.4-68.9zM488.3 307.1V159.9c0-5.4-2.7-8.2-8.2-8.2s-8.2 2.7-8.2 8.2v115.6l-66-118.9c-1.8-3.2-4.3-4.8-7.6-4.8-5.4 0-8.2 2.7-8.2 8.2v147.1c0 5.4 2.7 8.2 8.2 8.2 5.4 0 8.2-2.7 8.2-8.2V191.4L473 311.2c1.5 2.7 3.9 4.1 7.2 4.1 5.4-.1 8.1-2.8 8.1-8.2zm-133.8-70.6c0-65.4-53-118.4-118.4-118.4s-118.4 53-118.4 118.4 53 118.4 118.4 118.4c39 0 73.6-18.9 95.1-47.9l-71.8-145.4c-1.6-3.3-.3-7.3 3-8.9 3.3-1.6 7.3-.3 8.9 3L339.6 294c9.4-17.1 14.9-36.7 14.9-57.5zm-145.2 35c3.3 1.6 4.6 5.6 3 8.9l-15.3 31c-1.1 2.3-3.5 3.7-5.9 3.7h-.1c-1 0-1.9-.2-2.9-.7-3.3-1.6-4.6-5.6-3-8.9l15.3-31c1.7-3.3 5.6-4.6 8.9-3zm48.2-82.7L227.8 249h58.1c3.7 0 6.6 3 6.6 6.6 0 3.7-3 6.6-6.6 6.6h-68.8c-1 0-2-.2-2.9-.7-3.3-1.6-4.6-5.6-3-8.9l34.5-69.8c1.6-3.3 5.6-4.6 8.9-3 3.2 1.7 4.6 5.7 2.9 9z" id="Layer_1" />
</svg>