<?xml version="1.0" encoding="utf-8"?>
<!-- Generator: Adobe Illustrator 24.0.3, SVG Export Plug-In . SVG Version: 6.00 Build 0)  -->
<svg version="1.1" xmlns="http://www.w3.org/2000/svg" xmlns:xlink="http://www.w3.org/1999/xlink" x="0px" y="0px"
	 viewBox="0 0 1236.3 536.6" style="enable-background:new 0 0 1236.3 536.6;" xml:space="preserve">
<style type="text/css">
	.st0{display:none;}
	.st1{display:inline;fill:none;stroke:#000000;stroke-width:0.3138;stroke-miterlimit:10;}
	.st2{display:inline;fill:none;stroke:#000000;stroke-width:0.25;stroke-miterlimit:10;}
	.st3{display:inline;fill:none;stroke:#000000;stroke-width:0.3182;stroke-miterlimit:10;}
	.st4{display:inline;fill:#A7A9AC;}
	.st5{fill:#FFFFFF;}
</style>
<g id="Layer_2_copy" class="st0">
	<line class="st1" x1="-1134.1" y1="366.8" x2="-138.6" y2="366.8"/>
	<line class="st2" x1="-1138" y1="418.4" x2="-138.9" y2="418.4"/>
	<line class="st1" x1="-1134.1" y1="315.3" x2="-138.6" y2="315.3"/>
	<line class="st3" x1="-865" y1="158.8" x2="-865" y2="530.7"/>
	<line class="st3" x1="-138" y1="158.8" x2="-138" y2="530.7"/>
	<rect x="-976.6" y="367.1" class="st4" width="37.3" height="51.3"/>
	<rect x="-917.2" y="315.3" class="st4" width="37.3" height="51.3"/>
	<rect x="-1138" y="118.3" class="st4" width="118.3" height="118.3"/>
	<rect x="-138.3" y="-0.3" class="st4" width="118.3" height="118.3"/>
	<rect x="-138.3" y="418.3" class="st4" width="118.3" height="118.3"/>
	<rect x="-1256.3" class="st4" width="118.3" height="118.3"/>
	<rect x="-1256.3" y="418.3" class="st4" width="118.3" height="118.3"/>
</g>
<g id="Layer_6">
	<g>
		<path class="st5" d="M390.3,394.5c0-15.7,11.4-26.5,25.9-26.5c8.1,0,14.3,3.6,18.7,9.1l-3.7,2.4c-3.2-4.5-8.8-7.4-15-7.4
			c-12.1,0-21.3,9.1-21.3,22.5c0,13.2,9.3,22.5,21.3,22.5c6.1,0,11.7-3,15-7.4l3.7,2.3c-4.5,5.6-10.5,9.1-18.7,9.1
			C401.7,421,390.3,410.2,390.3,394.5z"/>
		<path class="st5" d="M467.2,420v-4.4c-3.3,3.6-7.4,5.3-12.6,5.3c-6.4,0-13-4.4-13-12.4c0-8.1,6.5-12.3,13-12.3
			c5.1,0,9.4,1.7,12.6,5.3v-7.5c0-5.5-4.5-8.5-10-8.5c-4.6,0-8.2,1.6-11.6,5.5l-2.2-2.8c3.8-4.1,8.1-6.2,14.3-6.2
			c7.5,0,13.5,3.6,13.5,11.9V420H467.2z M467.2,412.7v-8.1c-2.6-3.4-6.8-5.1-11.2-5.1c-6.1,0-10.1,3.9-10.1,9.2
			c0,5.2,4,9.1,10.1,9.1C460.4,417.8,464.6,416.1,467.2,412.7z"/>
		<path class="st5" d="M487.6,414v20.1h-4V383h4v5.8c2.6-3.8,7.4-6.8,12.9-6.8c9.9,0,16.6,7.5,16.6,19.4c0,11.8-6.7,19.5-16.6,19.5
			C495.3,421,490.6,418.3,487.6,414z M512.8,401.5c0-9-4.7-15.8-13-15.8c-5.1,0-10.1,3.1-12.2,6.6v18.3c2.1,3.5,7.1,6.8,12.2,6.8
			C508.1,417.3,512.8,410.4,512.8,401.5z"/>
		<path class="st5" d="M527.9,412.9v-26.4h-6.1V383h6.1v-10.1h4.1V383h7.5v3.5H532v25.8c0,3,1.2,5.1,3.8,5.1c1.8,0,3.3-0.8,4.1-1.8
			l1.5,3.1c-1.5,1.4-3.2,2.3-6.3,2.3C530.3,421,527.9,418,527.9,412.9z"/>
		<path class="st5" d="M573.3,420v-5.4c-3.1,3.4-8,6.4-13.4,6.4c-7.6,0-11.7-3.5-11.7-11.9V383h4v25.2c0,7.2,3.6,9.2,9,9.2
			c4.8,0,9.6-2.8,12.1-6.1V383h4V420H573.3z"/>
		<path class="st5" d="M589.7,420V383h4v6.4c3.1-4.1,7.4-7.1,12.5-7.1v4.4c-0.7-0.2-1.2-0.2-2-0.2c-3.8,0-8.8,3.4-10.5,6.6v27H589.7
			z"/>
		<path class="st5" d="M611.9,401.5c0-10.7,7.6-19.4,17.9-19.4c11.3,0,17.5,9,17.5,19.7v1.1h-31c0.4,8.1,5.8,14.7,14.5,14.7
			c4.7,0,9-1.8,12.1-5.1l2.1,2.6c-3.7,3.8-8.4,6-14.5,6C619.6,421,611.9,412.9,611.9,401.5z M629.7,385.5c-8.8,0-13.1,7.7-13.4,14.1
			h26.9C643.1,393.3,639,385.5,629.7,385.5z"/>
		<path class="st5" d="M675.6,394.5c0-15,9.8-26.5,24.9-26.5c15,0,24.9,11.5,24.9,26.5s-9.9,26.5-24.9,26.5
			C685.5,421,675.6,409.4,675.6,394.5z M720.8,394.5c0-13-8-22.5-20.3-22.5c-12.4,0-20.3,9.4-20.3,22.5c0,12.9,7.8,22.5,20.3,22.5
			C712.8,417,720.8,407.4,720.8,394.5z"/>
		<path class="st5" d="M740,414v20.1h-4V383h4v5.8c2.6-3.8,7.4-6.8,12.9-6.8c9.9,0,16.6,7.5,16.6,19.4c0,11.8-6.7,19.5-16.6,19.5
			C747.7,421,743,418.3,740,414z M765.2,401.5c0-9-4.7-15.8-13-15.8c-5.1,0-10.1,3.1-12.2,6.6v18.3c2.1,3.5,7.1,6.8,12.2,6.8
			C760.5,417.3,765.2,410.4,765.2,401.5z"/>
		<path class="st5" d="M783.6,414v20.1h-4V383h4v5.8c2.6-3.8,7.4-6.8,12.9-6.8c9.9,0,16.6,7.5,16.6,19.4c0,11.8-6.7,19.5-16.6,19.5
			C791.2,421,786.6,418.3,783.6,414z M808.7,401.5c0-9-4.7-15.8-13-15.8c-5.1,0-10.1,3.1-12.2,6.6v18.3c2.1,3.5,7.1,6.8,12.2,6.8
			C804.1,417.3,808.7,410.4,808.7,401.5z"/>
		<path class="st5" d="M821,401.5c0-10.8,7-19.4,17.8-19.4c11,0,17.9,8.6,17.9,19.4s-6.9,19.5-17.9,19.5
			C827.9,421,821,412.3,821,401.5z M852.3,401.5c0-8.2-4.8-15.8-13.6-15.8c-8.6,0-13.5,7.6-13.5,15.8c0,8.3,4.9,15.9,13.5,15.9
			C847.5,417.3,852.3,409.7,852.3,401.5z"/>
		<path class="st5" d="M866.9,420V383h4v6.4c3.1-4.1,7.4-7.1,12.5-7.1v4.4c-0.7-0.2-1.2-0.2-2-0.2c-3.8,0-8.8,3.4-10.5,6.6v27H866.9
			z"/>
		<path class="st5" d="M892,412.9v-26.4h-6.1V383h6.1v-10.1h4.1V383h7.5v3.5h-7.5v25.8c0,3,1.2,5.1,3.8,5.1c1.8,0,3.3-0.8,4.1-1.8
			l1.5,3.1c-1.5,1.4-3.2,2.3-6.3,2.3C894.4,421,892,418,892,412.9z"/>
		<path class="st5" d="M937.4,420v-5.4c-3.1,3.4-8,6.4-13.4,6.4c-7.6,0-11.7-3.5-11.7-11.9V383h4v25.2c0,7.2,3.6,9.2,9,9.2
			c4.8,0,9.6-2.8,12.1-6.1V383h4V420H937.4z"/>
		<path class="st5" d="M978.8,420v-25.1c0-7.1-3.6-9.3-9-9.3c-4.8,0-9.7,3-12.1,6.4v28h-4V383h4v5.6c2.7-3.2,8-6.5,13.4-6.5
			c7.5,0,11.7,3.7,11.7,12.1V420H978.8z"/>
		<path class="st5" d="M994.2,374.1c0-1.7,1.5-3,3.1-3c1.7,0,3.1,1.3,3.1,3c0,1.7-1.4,3.1-3.1,3.1
			C995.7,377.1,994.2,375.7,994.2,374.1z M995.3,420V383h4V420H995.3z"/>
		<path class="st5" d="M1012.5,412.9v-26.4h-6.1V383h6.1v-10.1h4.1V383h7.5v3.5h-7.5v25.8c0,3,1.2,5.1,3.8,5.1
			c1.8,0,3.3-0.8,4.1-1.8l1.5,3.1c-1.5,1.4-3.2,2.3-6.3,2.3C1014.8,421,1012.5,418,1012.5,412.9z"/>
		<path class="st5" d="M1031.7,374.1c0-1.7,1.5-3,3.1-3c1.7,0,3.1,1.3,3.1,3c0,1.7-1.4,3.1-3.1,3.1
			C1033.2,377.1,1031.7,375.7,1031.7,374.1z M1032.8,420V383h4V420H1032.8z"/>
		<path class="st5" d="M1047.1,401.5c0-10.7,7.6-19.4,17.9-19.4c11.3,0,17.5,9,17.5,19.7v1.1h-31c0.4,8.1,5.8,14.7,14.5,14.7
			c4.7,0,9-1.8,12.1-5.1l2.1,2.6c-3.7,3.8-8.4,6-14.5,6C1054.8,421,1047.1,412.9,1047.1,401.5z M1064.9,385.5
			c-8.8,0-13.1,7.7-13.4,14.1h26.9C1078.3,393.3,1074.2,385.5,1064.9,385.5z"/>
		<path class="st5" d="M1089.5,415.1l2.4-3c2.4,3,6.8,5.5,12,5.5c6.2,0,9.9-3.2,9.9-7.5c0-10.1-23.4-4.5-23.4-17.7
			c0-5.7,4.8-10.3,13.2-10.3c6.4,0,10.6,2.5,13.3,5.4l-2.2,2.8c-2.1-2.9-6.1-4.9-11.1-4.9c-5.8,0-9.3,2.9-9.3,6.8
			c0,9.3,23.4,3.6,23.4,17.9c0,6-4.6,10.9-13.9,10.9C1097.8,421,1093.2,419.2,1089.5,415.1z"/>
	</g>
</g>
<g id="Layer_7">
</g>
<g id="Layer_1">
	<g>
		<path class="st5" d="M1117.7,159.9c0-5.4-2.7-8.2-8.2-8.2h-65.4c-5.4,0-8.2,2.7-8.2,8.2v147.1c0,5.4,2.7,8.2,8.2,8.2h65.4
			c5.4,0,8.2-2.7,8.2-8.2c0-5.4-2.7-8.2-8.2-8.2h-57.2v-65.4h40.9c5.4,0,8.2-2.7,8.2-8.2c0-5.4-2.7-8.2-8.2-8.2h-40.9v-49h57.2
			C1115,168.1,1117.7,165.4,1117.7,159.9L1117.7,159.9z"/>
		<path class="st5" d="M988.8,307.1V159.9c0-5.4-2.7-8.2-8.2-8.2c-5.4,0-8.2,2.7-8.2,8.2v115.6l-66-118.9c-1.8-3.2-4.3-4.8-7.6-4.8
			c-5.4,0-8.2,2.7-8.2,8.2v147.1c0,5.4,2.7,8.2,8.2,8.2c5.4,0,8.2-2.7,8.2-8.2V191.4l66.4,119.8c1.5,2.7,3.9,4.1,7.2,4.1
			C986,315.2,988.8,312.5,988.8,307.1L988.8,307.1z"/>
		<path class="st5" d="M832.5,307.1V159.9c0-5.4-2.7-8.2-8.2-8.2c-5.4,0-8.2,2.7-8.2,8.2v147.1c0,5.4,2.7,8.2,8.2,8.2
			C829.8,315.2,832.5,312.5,832.5,307.1L832.5,307.1z"/>
		<path class="st5" d="M769.9,307.1c0-5.4-2.7-8.2-8.2-8.2h-57.2v-139c0-5.4-2.7-8.2-8.2-8.2s-8.2,2.7-8.2,8.2v147.1
			c0,5.4,2.7,8.2,8.2,8.2h65.4C767.2,315.2,769.9,312.5,769.9,307.1L769.9,307.1z"/>
		<path class="st5" d="M642.9,164.6c1-1.4,1.5-3,1.5-4.7c0-5.4-2.7-8.2-8.2-8.2c-3,0-5.2,1.2-6.8,3.5l-42.2,61.4L545,155.2
			c-1.6-2.3-3.8-3.5-6.8-3.5c-5.4,0-8.2,2.7-8.2,8.2c0,1.7,0.5,3.3,1.5,4.7l47.6,68.9v73.6c0,5.4,2.7,8.2,8.2,8.2
			c5.4,0,8.2-2.7,8.2-8.2v-73.6L642.9,164.6L642.9,164.6z"/>
		<path class="st5" d="M488.3,307.1V159.9c0-5.4-2.7-8.2-8.2-8.2s-8.2,2.7-8.2,8.2v115.6l-66-118.9c-1.8-3.2-4.3-4.8-7.6-4.8
			c-5.4,0-8.2,2.7-8.2,8.2v147.1c0,5.4,2.7,8.2,8.2,8.2c5.4,0,8.2-2.7,8.2-8.2V191.4L473,311.2c1.5,2.7,3.9,4.1,7.2,4.1
			C485.6,315.2,488.3,312.5,488.3,307.1L488.3,307.1z"/>
		<path class="st5" d="M354.5,236.5c0-65.4-53-118.4-118.4-118.4c-65.4,0-118.4,53-118.4,118.4c0,65.4,53,118.4,118.4,118.4
			c39,0,73.6-18.9,95.1-47.9l-71.8-145.4c-1.6-3.3-0.3-7.3,3-8.9c3.3-1.6,7.3-0.3,8.9,3l68.3,138.3
			C349,276.9,354.5,257.3,354.5,236.5L354.5,236.5z M209.3,271.5c3.3,1.6,4.6,5.6,3,8.9l-15.3,31c-1.1,2.3-3.5,3.7-5.9,3.7H191
			c-1,0-1.9-0.2-2.9-0.7c-3.3-1.6-4.6-5.6-3-8.9l15.3-31C202.1,271.2,206,269.9,209.3,271.5L209.3,271.5z M257.5,188.8L227.8,249
			h58.1c3.7,0,6.6,3,6.6,6.6c0,3.7-3,6.6-6.6,6.6c0,0-68.7,0-68.8,0c-1,0-2-0.2-2.9-0.7c-3.3-1.6-4.6-5.6-3-8.9l34.5-69.8
			c1.6-3.3,5.6-4.6,8.9-3C257.8,181.5,259.2,185.5,257.5,188.8L257.5,188.8z"/>
	</g>
</g>
</svg>
